<?xml version="1.0" encoding="UTF-8" standalone="no"?>
<!-- Generator: Adobe Illustrator 20.1.0, SVG Export Plug-In . SVG Version: 6.00 Build 0)  -->

<svg
   xmlns:dc="http://purl.org/dc/elements/1.1/"
   xmlns:cc="http://creativecommons.org/ns#"
   xmlns:rdf="http://www.w3.org/1999/02/22-rdf-syntax-ns#"
   xmlns:svg="http://www.w3.org/2000/svg"
   xmlns="http://www.w3.org/2000/svg"
   xmlns:sodipodi="http://sodipodi.sourceforge.net/DTD/sodipodi-0.dtd"
   xmlns:inkscape="http://www.inkscape.org/namespaces/inkscape"
   version="1.1"
   id="Layer_1"
   x="0px"
   y="0px"
   viewBox="0 0 170.0800018 42.5200005"
   style="enable-background:new 0 0 170.0800018 42.5200005;"
   xml:space="preserve"
   sodipodi:docname="eu-2.svg"
   inkscape:version="0.92.2 2405546, 2018-03-11"><metadata
   id="metadata145"><rdf:RDF><cc:Work
       rdf:about=""><dc:format>image/svg+xml</dc:format><dc:type
         rdf:resource="http://purl.org/dc/dcmitype/StillImage" /></cc:Work></rdf:RDF></metadata><defs
   id="defs143">






	
	
	
	
	
	
	
	
	
	
	
	

	

	
	
	
	
	
	
	
	
	
	
	
	

	
	
	
	
	
	
	
	
	
	
	
	
	
	
	
	
	
	
</defs><sodipodi:namedview
   pagecolor="#ffffff"
   bordercolor="#666666"
   borderopacity="1"
   objecttolerance="10"
   gridtolerance="10"
   guidetolerance="10"
   inkscape:pageopacity="0"
   inkscape:pageshadow="2"
   inkscape:window-width="1920"
   inkscape:window-height="1080"
   id="namedview141"
   showgrid="false"
   inkscape:zoom="2.7046096"
   inkscape:cx="-51.208869"
   inkscape:cy="23.108696"
   inkscape:window-x="1920"
   inkscape:window-y="-26"
   inkscape:window-maximized="0"
   inkscape:current-layer="Layer_1" />
<style
   type="text/css"
   id="style2">
	.st0{fill:#404040;}
	.st1{fill:#034EA2;}
	.st2{fill:#B3B3B3;}
	.st3{fill:#FFF200;}
</style>
























<path
   id="path4"
   d="m 94.223305,20.683697 c 0,-0.138096 0.06398,-0.212744 0.212715,-0.212744 h 3.9151 c 0.127685,0 0.202049,0.07465 0.202049,0.202076 v 0.659821 c 0,0.127679 -0.05331,0.191379 -0.212715,0.191379 h -2.90419 v 1.829857 h 2.574409 c 0.138375,0 0.212738,0.0637 0.212738,0.191408 v 0.65954 c 0,0.12768 -0.05331,0.19166 -0.212738,0.19166 h -2.574409 v 2.095631 H 98.4151 c 0.127434,0 0.191414,0.06398 0.191414,0.202076 v 0.649153 c 0,0.138067 -0.05335,0.191379 -0.202362,0.191379 H 94.43602 c -0.148735,0 -0.212715,-0.0637 -0.212715,-0.191379 z"
   class="st0"
   inkscape:connector-curvature="0"
   style="fill:#ffffff" /><path
   id="path6"
   d="m 103.96915,27.534933 h -0.75549 c -0.15943,0 -0.20208,-0.07437 -0.20208,-0.202047 v -0.329785 l -0.0213,-0.01067 c -0.4148,0.287111 -1.13831,0.638204 -1.78719,0.638204 -1.436092,0 -1.574436,-0.850921 -1.574436,-1.968204 v -3.127573 c 0,-0.12768 0.05303,-0.212715 0.202049,-0.212715 h 0.776577 c 0.13835,0 0.19166,0.07437 0.19166,0.212715 v 2.989506 c 0,0.638202 0.12743,1.042606 0.77658,1.042606 0.45719,0 1.15937,-0.340424 1.43609,-0.478771 v -3.553341 c 0,-0.12768 0.0427,-0.212715 0.20208,-0.212715 h 0.75549 c 0.14877,0 0.2018,0.07437 0.2018,0.212715 v 4.798025 c 0,0.138347 -0.053,0.202047 -0.2018,0.202047 z"
   class="st0"
   inkscape:connector-curvature="0"
   style="fill:#ffffff" /><path
   id="path8"
   d="m 106.67183,27.332886 c 0,0.127679 -0.0531,0.202047 -0.20208,0.202047 h -0.76591 c -0.14874,0 -0.20208,-0.0637 -0.20208,-0.202047 v -4.798025 c 0,-0.138348 0.0533,-0.212716 0.20208,-0.212716 h 0.75524 c 0.15969,0 0.21275,0.08504 0.21275,0.212716 v 0.468132 l 0.0213,0.02134 c 0.31939,-0.298061 1.07461,-0.65954 1.57446,-0.755524 0.13835,-0.03173 0.23406,0 0.25539,0.181019 l 0.0744,0.712853 c 0.011,0.148763 0.0213,0.212742 -0.20208,0.255108 -0.59581,0.11704 -1.35105,0.329784 -1.72345,0.489467 v 3.425633 z"
   class="st0"
   inkscape:connector-curvature="0"
   style="fill:#ffffff" /><path
   id="path10"
   d="m 111.35362,27.619997 c -2.13855,0 -2.27665,-1.563799 -2.27665,-2.776508 0,-0.999935 0.22313,-2.627716 2.27665,-2.627716 2.06363,0 2.35099,1.372364 2.35099,2.627716 0,1.212709 -0.14901,2.776508 -2.35099,2.776508 z m 0.0104,-4.382952 c -0.90426,0 -1.10633,0.574505 -1.10633,1.68084 0,1.127645 0.20207,1.680813 1.09594,1.680813 0.96796,0 1.15937,-0.5425 1.15937,-1.680813 0,-1.127672 -0.18074,-1.68084 -1.14898,-1.68084 z"
   class="st0"
   inkscape:connector-curvature="0"
   style="fill:#ffffff" /><path
   id="path12"
   d="m 117.22651,27.630638 c -0.35109,0 -0.84056,-0.0637 -1.32975,-0.234053 l -0.0106,0.01067 v 1.8725 c 0,0.11704 -0.032,0.212743 -0.20207,0.212743 h -0.75553 c -0.17007,0 -0.20205,-0.07465 -0.20205,-0.212743 v -6.744892 c 0,-0.138348 0.0533,-0.212716 0.20205,-0.212716 h 0.75553 c 0.14873,0 0.19141,0.08504 0.19141,0.212716 v 0.319116 l 0.032,0.02131 c 0.38282,-0.266056 1.06369,-0.638205 1.68084,-0.638205 1.3937,0 1.75518,1.053025 1.75518,2.659468 0,1.734152 -0.43612,2.734089 -2.11694,2.734089 z m 0.085,-4.329864 c -0.43613,0 -1.10634,0.3087 -1.42543,0.478771 v 2.659748 c 0.47877,0.138069 0.86159,0.18074 1.22335,0.18074 0.76588,0 1.03194,-0.393484 1.03194,-1.734152 0,-1.351055 -0.26606,-1.585107 -0.82986,-1.585107 z"
   class="st0"
   inkscape:connector-curvature="0"
   style="fill:#ffffff" /><path
   id="path14"
   d="m 121.38686,25.247641 c 0.032,1.074613 0.41507,1.372392 1.28733,1.372392 0.3831,0 0.97863,-0.0744 1.38306,-0.11704 0.19141,-0.02134 0.25511,-0.02134 0.28711,0.18102 l 0.064,0.350813 c 0.0317,0.159684 0.0107,0.244719 -0.18101,0.330035 -0.4148,0.159433 -1.19138,0.265777 -1.71283,0.265777 -2.03189,0 -2.32968,-1.297716 -2.32968,-2.680778 0,-1.031939 0.19141,-2.734087 2.26599,-2.734087 1.90422,0 2.24465,1.234016 2.27662,2.382997 0.0107,0.382815 -0.0957,0.648871 -0.52144,0.648871 h -2.81913 z m 0.0107,-0.797888 h 2.10655 c 0,-0.648871 -0.17035,-1.276688 -1.05327,-1.276688 -0.78725,0 -0.99997,0.4788 -1.05328,1.276688 z"
   class="st0"
   inkscape:connector-curvature="0"
   style="fill:#ffffff" /><path
   id="path16"
   d="m 128.98349,26.928453 c -0.53183,0.404433 -1.24469,0.691544 -1.95754,0.691544 -1.12764,0 -1.45743,-0.616896 -1.45743,-1.510489 -0.0107,-1.244682 0.65955,-1.776794 1.99993,-1.776794 h 1.36173 v -0.276445 c 0,-0.638483 -0.23406,-0.861868 -1.10634,-0.861868 -0.35109,0 -1.02127,0.05331 -1.44676,0.09571 -0.21272,0.03197 -0.26606,0.02133 -0.29775,-0.127428 l -0.096,-0.393738 c -0.0211,-0.138374 0.0107,-0.22341 0.24472,-0.319115 0.45746,-0.159685 1.29798,-0.234052 1.79784,-0.234052 1.8405,0 2.06392,0.755216 2.06392,1.946868 v 2.05324 c 0,0.436129 0.0533,0.446797 0.38309,0.489187 0.1594,0.01067 0.20205,0.04265 0.20205,0.159686 v 0.446796 c 0,0.117039 -0.0744,0.191408 -0.2554,0.223383 -0.17006,0.032 -0.34042,0.05334 -0.49982,0.05334 -0.50013,0 -0.80856,-0.149044 -0.91493,-0.649153 z m -0.0637,-1.765848 h -1.29801 c -0.53184,0 -0.87227,0.191408 -0.87227,0.893593 0,0.468132 0.15941,0.617147 0.65955,0.617147 0.45746,0 1.1063,-0.266056 1.51073,-0.500108 z"
   class="st0"
   inkscape:connector-curvature="0"
   style="fill:#ffffff" /><path
   id="path18"
   d="m 135.73958,27.534933 h -0.76589 c -0.13838,0 -0.20207,-0.0637 -0.20207,-0.202047 l 0.0107,-2.989506 c 0,-0.627535 -0.14902,-1.042606 -0.76616,-1.042606 -0.42549,0 -1.17008,0.340423 -1.45743,0.478771 v 3.553341 c 0,0.127679 -0.0531,0.202047 -0.20209,0.202047 h -0.75523 c -0.14902,0 -0.20233,-0.0637 -0.20233,-0.202047 v -4.798025 c 0,-0.138348 0.0533,-0.212716 0.20233,-0.212716 h 0.75523 c 0.14902,0 0.20209,0.07437 0.20209,0.212716 v 0.319116 c 0.0107,0 0.0213,0.01067 0.032,0.01067 0.39349,-0.276444 1.13833,-0.638203 1.78718,-0.638203 1.43613,0 1.5638,0.946623 1.5638,2.021235 v 3.085209 c 0,0.12768 -0.0424,0.202047 -0.20207,0.202047 z"
   class="st0"
   inkscape:connector-curvature="0"
   style="fill:#ffffff" /><path
   id="path20"
   d="m 97.078522,31.596586 c 0.521446,0 1.383064,0.07437 1.946899,0.308447 0.170067,0.07465 0.234047,0.159683 0.202324,0.329758 l -0.0957,0.436127 c -0.03226,0.127708 -0.08531,0.181018 -0.276726,0.159683 -0.521164,-0.0637 -1.159645,-0.138348 -1.712784,-0.138348 -1.447044,0 -1.659782,1.170315 -1.659782,2.553349 0,1.393447 0.266052,2.489395 1.659782,2.489395 0.616867,0 1.138314,-0.06401 1.712784,-0.138378 0.20208,-0.02133 0.244469,0.03201 0.287117,0.170353 l 0.08531,0.404151 c 0.0424,0.170075 -0.01092,0.266057 -0.181015,0.340424 -0.521164,0.223385 -1.446762,0.319088 -1.968208,0.319088 -2.37233,0 -2.872185,-1.755176 -2.872185,-3.563698 0,-1.819187 0.4468,-3.670351 2.872185,-3.670351 z"
   class="st0"
   inkscape:connector-curvature="0"
   style="fill:#ffffff" /><path
   id="path22"
   d="m 102.27113,38.819996 c -2.13831,0 -2.276661,-1.563797 -2.276661,-2.776508 0,-0.999936 0.223391,-2.627717 2.276661,-2.627717 2.0639,0 2.35099,1.372364 2.35099,2.627717 0,1.212711 -0.14874,2.776508 -2.35099,2.776508 z m 0.0104,-4.38295 c -0.90398,0 -1.10634,0.574505 -1.10634,1.68084 0,1.127643 0.20236,1.680812 1.09596,1.680812 0.96795,0 1.15936,-0.542499 1.15936,-1.680812 0,-1.127675 -0.18074,-1.68084 -1.14898,-1.68084 z"
   class="st0"
   inkscape:connector-curvature="0"
   style="fill:#ffffff" /><path
   id="path24"
   d="m 113.09102,38.734932 h -0.76588 c -0.14876,0 -0.20208,-0.0637 -0.20208,-0.202049 v -3.021508 c 0,-0.78722 -0.1914,-1.010601 -0.72352,-1.010601 -0.39348,0 -1.03194,0.308701 -1.36172,0.478771 0,0.106373 0.011,0.29778 0.011,0.5425 v 3.010838 c 0,0.127681 -0.0427,0.202049 -0.20236,0.202049 h -0.77656 c -0.13834,0 -0.18101,-0.0637 -0.18101,-0.202049 v -3.07454 c 0,-0.648868 -0.17007,-0.957569 -0.70219,-0.957569 -0.37214,0 -0.96795,0.266056 -1.37211,0.478771 v 3.553338 c 0,0.127681 -0.053,0.202049 -0.20233,0.202049 h -0.76563 c -0.13837,0 -0.19169,-0.0637 -0.19169,-0.202049 v -4.798024 c 0,-0.138347 0.0533,-0.212715 0.19169,-0.212715 h 0.75525 c 0.15968,0 0.21271,0.08504 0.21271,0.212715 v 0.308449 l 0.0104,0.01067 c 0.4151,-0.287113 1.00024,-0.606228 1.58539,-0.627537 0.61689,0 1.12767,0.127682 1.45742,0.744549 0.53184,-0.393456 1.19165,-0.744549 1.87251,-0.744549 1.40411,0 1.54246,0.914898 1.54246,1.978592 v 3.12785 c 0,0.127681 -0.0426,0.202049 -0.19169,0.202049 z"
   class="st0"
   inkscape:connector-curvature="0"
   style="fill:#ffffff" /><path
   id="path26"
   d="m 121.85852,38.734932 h -0.76616 c -0.14874,0 -0.20208,-0.0637 -0.20208,-0.202049 v -3.021508 c 0,-0.78722 -0.1914,-1.010601 -0.72352,-1.010601 -0.39345,0 -1.03166,0.308701 -1.36169,0.478771 0,0.106373 0.0106,0.29778 0.0106,0.5425 v 3.010838 c 0,0.127681 -0.0424,0.202049 -0.20205,0.202049 h -0.77657 c -0.13835,0 -0.18074,-0.0637 -0.18074,-0.202049 v -3.07454 c 0,-0.648868 -0.17036,-0.957569 -0.70219,-0.957569 -0.37242,0 -0.96823,0.266056 -1.37239,0.478771 v 3.553338 c 0,0.127681 -0.0533,0.202049 -0.20205,0.202049 h -0.76618 c -0.13807,0 -0.19142,-0.0637 -0.19142,-0.202049 v -4.798024 c 0,-0.138347 0.0533,-0.212715 0.19142,-0.212715 h 0.75552 c 0.1594,0 0.21271,0.08504 0.21271,0.212715 v 0.308449 l 0.0107,0.01067 c 0.41482,-0.287113 0.99996,-0.606228 1.58514,-0.627537 0.61686,0 1.12764,0.127682 1.4574,0.744549 0.53185,-0.393456 1.19137,-0.744549 1.87225,-0.744549 1.40436,0 1.54271,0.914898 1.54271,1.978592 v 3.12785 c 0,0.127681 -0.0426,0.202049 -0.19141,0.202049 z"
   class="st0"
   inkscape:connector-curvature="0"
   style="fill:#ffffff" /><path
   id="path28"
   d="m 123.94458,32.756233 c -0.55317,0 -0.62754,-0.3087 -0.62754,-0.617149 0,-0.340424 0.11704,-0.606478 0.62754,-0.606478 0.52144,0 0.62782,0.244719 0.62782,0.606478 0,0.329758 -0.0957,0.617149 -0.62782,0.617149 z m 0.56384,5.77665 c 0,0.117012 -0.0424,0.202049 -0.19141,0.202049 h -0.75525 c -0.14902,0 -0.21272,-0.0637 -0.21272,-0.202049 v -4.808689 c 0,-0.149018 0.0637,-0.20205 0.21272,-0.20205 h 0.75525 c 0.14901,0 0.19141,0.08504 0.19141,0.20205 z"
   class="st0"
   inkscape:connector-curvature="0"
   style="fill:#ffffff" /><path
   id="path30"
   d="m 127.57281,38.819996 c -0.53211,0 -1.24468,-0.07439 -1.64908,-0.234081 -0.21275,-0.08503 -0.25539,-0.180737 -0.22341,-0.35109 l 0.0744,-0.350811 c 0.032,-0.170353 0.10635,-0.181022 0.2767,-0.159683 0.46813,0.07437 1.14901,0.127678 1.51077,0.127678 0.68085,0 0.95729,-0.181019 0.95729,-0.60648 0,-0.489441 -0.18074,-0.595814 -0.85094,-0.691517 -1.04261,-0.148761 -1.95755,-0.372429 -1.95755,-1.531795 0,-1.053276 0.80856,-1.606446 1.99993,-1.606446 0.43614,0 1.17032,0.0637 1.61712,0.234055 0.18074,0.07437 0.25539,0.159405 0.22338,0.319115 l -0.085,0.383068 c -0.032,0.148765 -0.0957,0.170071 -0.28735,0.148765 -0.45748,-0.05306 -1.05303,-0.117042 -1.44677,-0.117042 -0.68087,0 -0.84028,0.191688 -0.84028,0.595814 0,0.414818 0.25511,0.468132 0.90426,0.574505 1.01062,0.149013 1.92553,0.351089 1.92553,1.617111 0,1.244682 -1.05327,1.648834 -2.14895,1.648834 z"
   class="st0"
   inkscape:connector-curvature="0"
   style="fill:#ffffff" /><path
   id="path32"
   d="m 132.4567,38.819996 c -0.53212,0 -1.24469,-0.07439 -1.6491,-0.234081 -0.21274,-0.08503 -0.25538,-0.180737 -0.22342,-0.35109 l 0.0744,-0.350811 c 0.032,-0.170353 0.10637,-0.181022 0.27674,-0.159683 0.46812,0.07437 1.14897,0.127678 1.51072,0.127678 0.68088,0 0.95733,-0.181019 0.95733,-0.60648 0,-0.489441 -0.18074,-0.595814 -0.85094,-0.691517 -1.04262,-0.148761 -1.95754,-0.372429 -1.95754,-1.531795 0,-1.053276 0.80855,-1.606446 1.99993,-1.606446 0.4364,0 1.17032,0.0637 1.61711,0.234055 0.18101,0.07437 0.25539,0.159405 0.22339,0.319115 l -0.085,0.383068 c -0.032,0.148765 -0.0957,0.170071 -0.2874,0.148765 -0.45743,-0.05306 -1.05299,-0.117042 -1.44673,-0.117042 -0.68088,0 -0.84027,0.191688 -0.84027,0.595814 0,0.414818 0.25509,0.468132 0.90425,0.574505 1.0106,0.149013 1.92554,0.351089 1.92554,1.617111 0,1.244682 -1.05329,1.648834 -2.14894,1.648834 z"
   class="st0"
   inkscape:connector-curvature="0"
   style="fill:#ffffff" /><path
   id="path34"
   d="m 136.34032,32.756233 c -0.55315,0 -0.62754,-0.3087 -0.62754,-0.617149 0,-0.340424 0.11704,-0.606478 0.62754,-0.606478 0.52144,0 0.62782,0.244719 0.62782,0.606478 0,0.329758 -0.0957,0.617149 -0.62782,0.617149 z m 0.56384,5.77665 c 0,0.117012 -0.0424,0.202049 -0.19142,0.202049 h -0.75521 c -0.14904,0 -0.21275,-0.0637 -0.21275,-0.202049 v -4.808689 c 0,-0.149018 0.0637,-0.20205 0.21275,-0.20205 h 0.75521 c 0.14902,0 0.19142,0.08504 0.19142,0.20205 z"
   class="st0"
   inkscape:connector-curvature="0"
   style="fill:#ffffff" /><path
   id="path36"
   d="m 140.39404,38.819996 c -2.13827,0 -2.27664,-1.563797 -2.27664,-2.776508 0,-0.999936 0.22341,-2.627717 2.27664,-2.627717 2.06391,0 2.35103,1.372364 2.35103,2.627717 0,1.212711 -0.14905,2.776508 -2.35103,2.776508 z m 0.0107,-4.38295 c -0.90425,0 -1.10661,0.574505 -1.10661,1.68084 0,1.127643 0.20236,1.680812 1.09594,1.680812 0.96797,0 1.15966,-0.542499 1.15966,-1.680812 0,-1.127675 -0.18102,-1.68084 -1.14899,-1.68084 z"
   class="st0"
   inkscape:connector-curvature="0"
   style="fill:#ffffff" /><path
   id="path38"
   d="m 148.08638,38.734932 h -0.76588 c -0.13839,0 -0.20209,-0.0637 -0.20209,-0.202049 l 0.0107,-2.989502 c 0,-0.627537 -0.149,-1.042607 -0.76616,-1.042607 -0.42549,0 -1.17005,0.340424 -1.45742,0.478771 v 3.553337 c 0,0.127682 -0.0531,0.20205 -0.20208,0.20205 h -0.75524 c -0.14902,0 -0.20234,-0.0637 -0.20234,-0.20205 v -4.798023 c 0,-0.138347 0.0533,-0.212715 0.20234,-0.212715 h 0.75524 c 0.14902,0 0.20208,0.07437 0.20208,0.212715 v 0.319119 c 0.0107,0 0.0213,0.01067 0.032,0.01067 0.39348,-0.276444 1.13834,-0.638203 1.7872,-0.638203 1.4361,0 1.56378,0.946625 1.56378,2.021236 v 3.085205 c 0,0.127682 -0.0424,0.20205 -0.20207,0.20205 z"
   class="st0"
   inkscape:connector-curvature="0"
   style="fill:#ffffff" /><polygon
   style="fill:#034ea2"
   class="st1"
   points="153.18134,17.351446 153.18134,38.733589 155.00571,38.733589 155.00571,17.351446 "
   id="polygon42" /><path
   id="path44"
   d="m 15.140387,15.653414 c 0,0 21.982464,-2.866052 22.603447,-2.968448 0.951134,-0.156268 1.796341,-0.339192 2.584374,-0.559049 1.778175,-0.490671 3.414837,-1.239755 4.863644,-2.2264467 1.389064,-0.9390097 2.68132,-2.3048205 3.962234,-3.8029885 0.814575,-0.9533439 1.670033,-2.1963758 2.46806,-3.3960917 v -0.578872 c -0.946789,1.4121799 -1.87933,2.628696 -2.838276,3.702888 -1.271088,1.425704 -2.604359,2.5919318 -3.963616,3.4667916 -1.402462,0.9102803 -2.981155,1.5897563 -4.692329,2.0198913 -0.766979,0.194684 -1.588246,0.352465 -2.511238,0.482048 -0.608551,0.08616 -1.235668,0.152461 -1.842007,0.21686 -0.242286,0.0257 -20.634293,2.205253 -20.634293,2.205253 z"
   class="st2"
   inkscape:connector-curvature="0"
   style="fill:#b3b3b3" /><path
   id="path46"
   d="m 44.619957,11.939298 c -1.375935,0.797495 -2.96529,1.380876 -4.723228,1.734432 -0.750988,0.152712 -1.56926,0.276835 -2.50264,0.379371 -0.547962,0.05989 -1.100289,0.108164 -1.653206,0.156129 -0.298451,0.02612 -0.596764,0.05211 -0.894123,0.07972 -6.736548,0.608664 -13.438488,1.256052 -19.706372,1.869223 v 1.436905 c 6.31722,-0.767817 13.065809,-1.58074 19.80003,-2.348696 0.299404,-0.03539 0.599091,-0.06877 0.898914,-0.101696 0.551655,-0.0614 1.104012,-0.122641 1.658131,-0.196197 0.958244,-0.12852 1.796761,-0.276164 2.562923,-0.451305 1.826565,-0.411542 3.476624,-1.061226 4.902192,-1.931018 1.417087,-0.856968 2.669429,-2.056936 4.015838,-3.524332 0.838234,-0.9132757 1.771057,-2.2021441 2.64373,-3.4133401 v -0.526904 c -1.027992,1.4053202 -2.003624,2.5859122 -2.969257,3.5929599 -1.314544,1.3721122 -2.671211,2.4634122 -4.032932,3.2447522 z"
   class="st2"
   inkscape:connector-curvature="0"
   style="fill:#b3b3b3" /><path
   id="path48"
   d="m 48.467079,11.587254 c -1.341339,1.239616 -2.741611,2.214575 -4.162803,2.898307 -1.389336,0.675248 -2.944104,1.149121 -4.753853,1.449085 -0.746758,0.124543 -1.558731,0.226519 -2.481022,0.311024 l -21.929012,1.814539 v 1.433909 l 19.492954,-2.084292 2.522186,-0.267288 c 0.949787,-0.11046 1.778561,-0.234611 2.532852,-0.379261 1.874276,-0.356271 3.482087,-0.889083 4.91449,-1.627891 1.464256,-0.746228 2.927551,-1.987776 4.287766,-3.30232 0.913162,-0.881551 1.79211,-2.020005 2.73151,-3.2141197 V 8.1412659 c -1.084999,1.35884 -2.120915,2.4914121 -3.155068,3.4459881 z"
   class="st2"
   inkscape:connector-curvature="0"
   style="fill:#b3b3b3" /><path
   id="path50"
   d="m 43.164314,19.032957 c -1.276542,0.719685 -2.23125,1.134365 -4.054386,1.326023 -1.101829,0.119505 -2.234402,0.176514 -3.329929,0.231478 -0.530209,0.02665 -1.061089,0.05317 -1.590737,0.0868 -3.312957,0.190876 -6.566307,0.402388 -9.885425,0.620453 l -9.163449,0.621796 v 1.433628 l 9.254897,-0.855736 c 2.990595,-0.270284 6.465843,-0.582008 9.858518,-0.860916 l 2.46613,-0.19236 c 0.96278,-0.07465 1.752323,-0.153804 2.483768,-0.249929 1.875916,-0.243908 3.478542,-0.625744 4.898369,-1.166479 1.528923,-0.576409 2.970749,-1.470814 4.414654,-2.522324 1.301834,-0.947996 3.103382,-2.81764 3.105423,-2.842112 V 14.15673 c -1.177819,1.157884 -1.856091,1.808128 -3.145211,2.664117 -1.540813,1.022922 -4.16801,1.566934 -5.312622,2.21211 z"
   class="st2"
   inkscape:connector-curvature="0"
   style="fill:#b3b3b3" /><path
   id="path52"
   d="m 43.630524,21.75775 c -1.383458,0.408519 -2.940667,0.685243 -4.760414,0.845628 -0.737187,0.06423 -1.53233,0.113596 -2.431271,0.150107 L 33.985985,22.8619 c -6.09479,0.285321 -12.159784,0.604437 -18.845596,0.96085 v 1.430212 c 6.386267,-0.498205 12.644969,-0.982857 18.900951,-1.431444 l 2.445633,-0.16828 c 0.944046,-0.06236 1.72662,-0.130312 2.46299,-0.213836 1.865669,-0.21028 3.461303,-0.534716 4.877437,-0.99148 1.569668,-0.500948 3.099541,-1.227324 4.547138,-2.158661 1.069127,-0.685915 2.138279,-1.503487 3.247609,-2.47926 v -0.025 c -1.222535,1.051483 -2.387532,1.284723 -3.548664,1.991302 -1.421746,0.86789 -2.916493,1.534514 -4.442959,1.98145 z"
   class="st2"
   inkscape:connector-curvature="0"
   style="fill:#b3b3b3" /><path
   id="path54"
   d="m 43.404392,24.133242 c -1.393436,0.328272 -2.90337,0.539364 -4.752628,0.664047 -0.713383,0.04827 -1.479828,0.08436 -2.413628,0.113624 l -2.429226,0.08708 c -6.120882,0.233241 -12.327222,0.501341 -18.668521,0.778624 v 1.429373 c 6.300419,-0.433104 12.481616,-0.854616 18.716262,-1.24782 l 2.423737,-0.146301 c 0.950321,-0.05454 1.724716,-0.110319 2.436336,-0.175671 1.883561,-0.175001 3.42466,-0.430109 4.849545,-0.802004 1.598789,-0.415073 3.15287,-1.023456 4.619327,-1.808241 1.133942,-0.605667 2.264725,-1.333807 3.43655,-2.21046 v -0.611407 c -1.266551,0.922039 -2.481304,1.673168 -3.697708,2.285948 -1.439636,0.726376 -2.960086,1.278984 -4.520046,1.643208 z"
   class="st2"
   inkscape:connector-curvature="0"
   style="fill:#b3b3b3" /><path
   id="path56"
   d="m 43.196854,26.462393 c -1.398087,0.257992 -2.903759,0.422605 -4.739212,0.518306 -0.690567,0.03553 -1.429261,0.06124 -2.395878,0.08367 L 15.140388,27.63529 v 1.427916 l 18.552464,-0.975632 2.403381,-0.12306 c 0.937886,-0.0443 1.705143,-0.09022 2.414578,-0.14546 1.860599,-0.143276 3.391315,-0.34947 4.816608,-0.649685 1.618069,-0.33852 3.188282,-0.832636 4.667442,-1.467816 1.19109,-0.508873 2.384507,-1.129856 3.627285,-1.884931 V 23.24279 c -1.327953,0.778204 -2.590419,1.403023 -3.843837,1.9026 -1.45866,0.584331 -2.999893,1.027012 -4.581455,1.317007 z"
   class="st2"
   inkscape:connector-curvature="0"
   style="fill:#b3b3b3" /><path
   id="path58"
   d="m 43.032654,28.801233 c -2.567162,0.345072 -5.209942,0.385 -7.765755,0.423277 -0.585842,0.0082 -1.171825,0.0175 -1.756969,0.02954 l -18.369542,0.333592 v 1.426237 l 18.401265,-0.798981 c 0.583492,-0.0268 1.16785,-0.05032 1.752574,-0.07381 2.573872,-0.103909 5.235524,-0.21056 7.83714,-0.627284 1.647323,-0.261408 3.232303,-0.648592 4.7112,-1.149511 1.225003,-0.413448 2.494156,-0.948305 3.779579,-1.580488 v -0.547289 c -1.350914,0.634256 -2.679542,1.160881 -3.955139,1.555736 -1.461658,0.455 -3.02066,0.794611 -4.634353,1.00898 z"
   class="st2"
   inkscape:connector-curvature="0"
   style="fill:#b3b3b3" /><path
   id="path60"
   d="m 42.886776,31.154997 c -2.405438,0.200144 -4.867058,0.200703 -7.248009,0.200703 -0.7406,0 -1.481197,0 -2.221828,0.006 -6.085463,0.0268 -12.122851,0.07711 -18.276551,0.130705 v 1.426796 c 5.861129,-0.200702 12.079229,-0.410144 18.297215,-0.596092 0.737995,-0.02461 1.476414,-0.04373 2.215668,-0.06289 2.393665,-0.0607 4.868808,-0.124122 7.298854,-0.388834 1.697915,-0.183176 3.242424,-0.452257 4.722275,-0.82138 1.290882,-0.319396 2.616375,-0.745949 3.947747,-1.258378 v -0.523906 c -1.374295,0.497112 -2.743802,0.902887 -4.077359,1.198204 -1.465492,0.325946 -2.989494,0.551261 -4.658012,0.689079 z"
   class="st2"
   inkscape:connector-curvature="0"
   style="fill:#b3b3b3" /><path
   id="path62"
   d="m 42.793808,33.475384 c -1.002148,0.0399 -2.087292,0.05906 -3.318173,0.05906 -0.465107,0 -0.930213,-0.0027 -1.394119,-0.0071 l -4.734688,-0.05796 c -3.230669,-0.02408 -6.449045,-0.02954 -9.46834,-0.03228 l -8.738101,0.0082 v 1.426262 l 8.758876,-0.231335 c 3.008517,-0.07437 6.236302,-0.151482 9.456579,-0.209999 l 4.730603,-0.06289 c 1.297745,-0.02078 3.01028,-0.05905 4.744961,-0.173908 1.699688,-0.111019 3.246658,-0.281624 4.729229,-0.520073 1.334396,-0.215458 2.697746,-0.504753 4.061512,-0.854756 V 32.31218 c -1.40123,0.32592 -2.793698,0.585704 -4.145035,0.767818 -1.474243,0.199051 -3.006039,0.328102 -4.683304,0.395386 z"
   class="st2"
   inkscape:connector-curvature="0"
   style="fill:#b3b3b3" /><path
   id="path64"
   d="m 38.026413,35.717567 -4.718422,-0.05087 C 27.288664,35.581379 21.274824,35.470386 15.140389,35.354996 v 1.426796 c 5.855528,-0.0394 12.057221,-0.08422 18.17197,-0.153691 l 4.720913,-0.07053 c 1.59071,-0.02736 3.148628,-0.05634 4.723896,-0.109368 3.243786,-0.104999 6.149483,-0.334709 8.864979,-0.696724 v -0.496017 c -2.725769,0.295315 -5.635819,0.45116 -8.881523,0.4725 -1.570485,0.01422 -3.14235,0.0027 -4.714211,-0.01039 z"
   class="st2"
   inkscape:connector-curvature="0"
   style="fill:#b3b3b3" /><polygon
   id="polygon66"
   points="51.622147,38.239754 15.140387,37.307884 15.140387,38.733589 51.622147,38.733589 "
   class="st2"
   style="fill:#b3b3b3" /><path
   id="path70"
   d="m 48.337215,14.281553 c -1.385803,1.121653 -2.456298,1.918728 -4.152431,2.597952 -1.476975,0.591444 -3.063587,0.8337 -4.876225,1.082676 -1.166339,0.164612 -2.38546,0.40824 -3.550033,0.486305 -0.478775,0.0324 -0.957993,0.0644 -1.435673,0.102116 l -19.182465,1.408764 v 1.431444 l 19.259968,-1.881937 2.49704,-0.235983 c 0.92627,-0.08817 1.748489,-0.19099 2.513729,-0.315281 1.866333,-0.302008 3.474831,-0.76314 4.916256,-1.409687 1.495567,-0.66472 3.00903,-1.753277 4.41547,-2.945742 0.95718,-0.809646 1.877568,-1.828763 2.879296,-2.94151 v -0.51296 c -1.211727,1.262184 -2.216088,2.270604 -3.284932,3.133843 z"
   class="st2"
   inkscape:connector-curvature="0"
   style="fill:#b3b3b3" /><path
   style="fill:#b3b3b3"
   inkscape:connector-curvature="0"
   class="st2"
   d="m 67.147781,2.1215181 c 0,0 6.565781,10.4572149 7.766198,12.3745719 1.200386,1.916935 2.572494,3.433555 7.430244,4.463844 4.85775,1.030064 6.972504,1.516619 6.972504,1.516619 v 0.372036 c 0,0 -3.086556,-0.658308 -7.05838,-1.545347 -3.971802,-0.887013 -5.59549,-1.185492 -7.406166,-3.704652 -1.506653,-2.096864 -7.7044,-11.0069696 -7.7044,-11.0069696 z"
   id="path74" /><path
   style="fill:#b3b3b3"
   inkscape:connector-curvature="0"
   class="st2"
   d="m 67.147781,14.06363 c 0,0 5.976799,6.262956 7.7044,8.060948 1.833381,1.907359 4.1818,2.61282 7.436798,3.194296 3.107216,0.55468 7.026123,1.195319 7.026123,1.195319 v 0.352745 c 0,0 -3.679924,-0.602925 -7.026123,-1.175637 -3.280701,-0.561931 -5.577149,-0.875419 -7.456231,-2.606687 -1.682716,-1.550388 -7.684967,-7.178836 -7.684967,-7.178836 z"
   id="path76" /><path
   style="fill:#b3b3b3"
   inkscape:connector-curvature="0"
   class="st2"
   d="m 67.147781,16.885525 c 0,0 5.683945,5.278028 7.7044,7.08106 1.859649,1.659365 3.366554,2.17532 7.456481,2.900353 4.090493,0.725143 7.00644,1.175775 7.00644,1.175775 v 0.372427 c 0,0 -3.699082,-0.60757 -7.026123,-1.136938 -3.326622,-0.528837 -5.446724,-0.737885 -7.436798,-2.351301 -2.296898,-1.862923 -7.7044,-6.316828 -7.7044,-6.316828 z"
   id="path78" /><path
   style="fill:#b3b3b3"
   inkscape:connector-curvature="0"
   class="st2"
   d="m 67.147781,19.893734 c 0,0 6.493065,5.15074 7.706299,6.052256 1.213242,0.901264 2.818314,1.952888 7.475922,2.626091 4.618767,0.667213 6.986725,0.999153 6.986725,0.999153 v 0.39211 c 0,0 -4.187958,-0.60757 -6.986725,-0.960315 -2.798348,-0.352743 -4.944435,-0.502571 -7.456513,-2.175459 -2.445076,-1.62792 -7.725708,-5.345705 -7.725708,-5.345705 z"
   id="path80" /><path
   style="fill:#b3b3b3"
   inkscape:connector-curvature="0"
   class="st2"
   d="m 67.147781,22.785601 c 0,0 6.512184,4.336193 7.745392,5.021968 1.2332,0.685776 2.681336,1.803032 7.436829,2.410632 4.756019,0.607572 6.986725,0.881551 6.986725,0.881551 v 0.372429 c 0,0 -3.933663,-0.430948 -7.006409,-0.763981 -3.072357,-0.33362 -5.166199,-0.784223 -7.456238,-2.038202 -2.290031,-1.254009 -7.706299,-4.418764 -7.706299,-4.418764 z"
   id="path82" /><path
   style="fill:#b3b3b3"
   inkscape:connector-curvature="0"
   class="st2"
   d="m 67.147781,25.677498 c 0,0 5.756409,3.13138 7.7044,4.109196 2.172714,1.09102 4.05165,1.613304 7.456481,2.01852 3.343453,0.398132 7.00644,0.784222 7.00644,0.784222 v 0.352745 c 0,0 -3.386795,-0.362599 -7.00644,-0.705487 -3.588028,-0.340145 -4.865951,-0.496553 -7.456481,-1.646093 -2.316582,-1.028103 -7.7044,-3.540461 -7.7044,-3.540461 z"
   id="path84" /><path
   style="fill:#b3b3b3"
   inkscape:connector-curvature="0"
   class="st2"
   d="m 67.147781,28.608734 c 0,0 4.548912,1.94796 7.745392,3.216164 3.144539,1.247429 5.545174,1.352428 7.456513,1.567886 0.841652,0.09461 6.967041,0.725174 6.967041,0.725174 v 0.352181 c 0,0 -3.659684,-0.293663 -6.986725,-0.587353 -3.327187,-0.293663 -4.762047,-0.41835 -7.456513,-1.313034 -2.726166,-0.905072 -7.725708,-2.648518 -7.725708,-2.648518 z"
   id="path86" /><path
   style="fill:#b3b3b3"
   inkscape:connector-curvature="0"
   class="st2"
   d="m 67.147781,31.596865 c 0,0 4.592675,1.423521 7.724083,2.246553 3.131409,0.823059 6.008377,1.156651 7.456482,1.253979 1.448136,0.09845 6.988381,0.548519 6.988381,0.548519 v 0.333591 c 0,0 -3.151093,-0.214927 -7.008065,-0.489998 -3.118278,-0.222011 -5.6231,-0.457183 -7.456482,-0.862426 -2.031654,-0.448422 -7.704399,-1.796482 -7.704399,-1.796482 z"
   id="path88" /><path
   style="fill:#b3b3b3"
   inkscape:connector-curvature="0"
   class="st2"
   d="m 67.147781,34.536865 c 0,0 3.755951,0.647499 7.724083,1.30539 2.974717,0.493274 7.006409,0.803905 7.436798,0.823589 0.430947,0.01915 7.00644,0.470318 7.00644,0.470318 v 0.352184 c 0,0 -4.208763,-0.217648 -7.00644,-0.371868 -2.914291,-0.161339 -5.810951,-0.33799 -7.456481,-0.509686 -3.685418,-0.384468 -7.7044,-0.893058 -7.7044,-0.893058 z"
   id="path90" /><path
   style="fill:#b3b3b3"
   inkscape:connector-curvature="0"
   class="st2"
   d="m 67.147781,37.579681 c 0,0 5.923768,0.222573 7.724083,0.26194 1.800568,0.03884 14.443238,0.548519 14.443238,0.548519 v 0.343449 H 67.147781 Z"
   id="path92" /><path
   style="fill:#b3b3b3"
   inkscape:connector-curvature="0"
   class="st2"
   d="M 82.308662,20.576374 C 76.946411,19.420141 75.73317,17.460421 74.832748,16.24539 73.93232,15.030106 67.147781,5.1141587 67.147781,5.1141587 V 7.351974 c 0.267434,0.3499999 6.074433,7.951831 7.7044,10.049507 1.837219,2.363731 4.716651,2.900353 7.456481,3.488379 2.739716,0.587888 7.008065,1.407533 7.008065,1.407533 v -0.313516 c 0,0 -5.623383,-1.109051 -7.008065,-1.407503 z"
   id="path94" /><path
   style="fill:#b3b3b3"
   inkscape:connector-curvature="0"
   class="st2"
   d="M 82.308662,22.144121 C 77.905357,21.281834 76.124474,19.890457 74.832748,18.204998 73.541023,16.519649 67.147781,8.0928535 67.147781,8.0928535 v 2.1188725 c 0.267571,0.317324 6.116127,7.254575 7.684967,9.051475 1.830109,2.096164 4.383904,2.645776 7.475914,3.213979 3.092461,0.568344 7.00644,1.312893 7.00644,1.312893 v -0.313349 c 0,10e-7 -4.46743,-0.835351 -7.00644,-1.332603 z"
   id="path96" /><path
   style="fill:#b3b3b3"
   inkscape:connector-curvature="0"
   class="st2"
   d="m 82.308662,23.770529 c -4.579116,-0.888132 -5.518379,-1.619829 -7.456481,-3.743096 -1.218453,-1.334507 -7.441895,-8.683136 -7.7044,-8.993067 v 1.957815 c 0,0 5.815743,6.203065 7.684967,8.034825 2.453278,2.404051 4.755768,2.586836 7.475914,3.076723 2.720566,0.489861 7.00644,1.273945 7.00644,1.273945 v -0.3332 c 0,0 -5.174538,-0.918484 -7.00644,-1.273945 z"
   id="path98" /><polygon
   style="fill:#034ea2"
   class="st1"
   points="30.304012,17.352257 30.304012,38.733589 62.266125,38.733589 62.266125,17.352257 "
   id="polygon100" /><polygon
   id="polygon102"
   points="46.302692,21.515913 45.40992,22.198273 45.761833,21.090565 44.858398,20.392357 45.966774,20.392357 46.302692,19.312006 46.631504,20.392357 47.743698,20.392357 46.847244,21.090565 47.195599,22.198273 "
   class="st3"
   style="fill:#fff200" /><polygon
   id="polygon104"
   points="46.343437,35.732883 45.450523,36.389122 45.802303,35.324364 44.897224,34.651161 46.007519,34.651161 46.343437,33.611549 46.670605,34.651161 47.784329,34.651161 46.887993,35.324364 47.236198,36.389122 "
   class="st3"
   style="fill:#fff200" /><polygon
   id="polygon106"
   points="49.870636,34.786793 48.977856,35.444683 49.329647,34.378273 48.424435,33.706692 49.534721,33.706692 49.870636,32.66708 50.197678,33.706692 51.311657,33.706692 50.41518,34.378273 50.763557,35.444683 "
   class="st3"
   style="fill:#fff200" /><polygon
   id="polygon108"
   points="49.870636,22.424681 48.977856,23.081478 49.329647,22.01535 48.424435,21.343489 49.534721,21.343489 49.870636,20.304018 50.197678,21.343489 51.311657,21.343489 50.41518,22.01535 50.763557,23.081478 "
   class="st3"
   style="fill:#fff200" /><polygon
   id="polygon110"
   points="52.487431,25.0431 51.596306,25.699898 51.948097,24.632957 51.042854,23.961937 52.151375,23.961937 52.487431,22.922325 52.816376,23.961937 53.928173,23.961937 53.031864,24.632957 53.380211,25.699898 "
   class="st3"
   style="fill:#fff200" /><polygon
   id="polygon112"
   points="52.487431,32.205528 51.596306,32.863419 51.948097,31.797569 51.042854,31.123806 52.151375,31.123806 52.487431,30.084194 52.816376,31.123806 53.928173,31.123806 53.031864,31.797569 53.380211,32.863419 "
   class="st3"
   style="fill:#fff200" /><polygon
   id="polygon114"
   points="53.470177,28.568806 52.577396,29.226694 52.929329,28.160286 52.02409,27.488201 53.132748,27.488201 53.470177,26.449541 53.797466,27.488201 54.911476,27.488201 54.014858,28.160286 54.362957,29.226694 "
   class="st3"
   style="fill:#fff200" /><polygon
   id="polygon116"
   points="42.706581,22.433418 41.813671,23.091165 42.165722,22.025038 41.26215,21.352253 42.3708,21.352253 42.706581,20.31278 43.035526,21.352253 44.147461,21.352253 43.251129,22.025038 43.599491,23.091165 "
   class="st3"
   style="fill:#fff200" /><polygon
   id="polygon118"
   points="40.162392,25.051865 39.269611,25.708801 39.620564,24.642534 38.716164,23.970701 39.826477,23.970701 40.162392,22.931229 40.489544,23.970701 41.603397,23.970701 40.706936,24.642534 41.05352,25.708801 "
   class="st3"
   style="fill:#fff200" /><polygon
   id="polygon120"
   points="39.216553,28.579754 38.323662,29.235457 38.675564,28.16958 37.772003,27.496937 38.880634,27.496937 39.216553,26.458418 39.544544,27.496937 40.657574,27.496937 39.761124,28.16958 40.109333,29.235457 "
   class="st3"
   style="fill:#fff200" /><polygon
   id="polygon122"
   points="40.162392,32.214825 39.269611,32.872181 39.620564,31.806305 38.716164,31.13257 39.826477,31.13257 40.162392,30.09458 40.489544,31.13257 41.603397,31.13257 40.706936,31.806305 41.05352,32.872181 "
   class="st3"
   style="fill:#fff200" /><polygon
   id="polygon124"
   points="42.743629,34.796089 41.850861,35.453419 42.20277,34.387569 41.299335,33.715458 42.407848,33.715458 42.743629,32.675846 43.072712,33.715458 44.184647,33.715458 43.288181,34.387569 43.634766,35.453419 "
   class="st3"
   style="fill:#fff200" />
</svg>